<svg width="351" height="162" viewBox="0 0 351 162" fill="none" xmlns="http://www.w3.org/2000/svg">
<g opacity="0.22">
<path d="M50.9501 75.8188C50.5804 75.8188 50.2107 75.6715 49.9399 75.3798C49.4167 74.8206 49.4468 73.9456 50.0062 73.4256C51.8823 71.6696 53.0069 69.3635 53.2203 66.853C51.741 66.3088 50.433 66.2908 50.418 66.2908C47.7031 66.2908 44.4199 68.4976 44.4199 71.2367C44.4199 72.0034 43.8005 72.6227 43.0366 72.6227C42.2731 72.6227 41.6537 72.0034 41.6537 71.2367C41.6537 68.4976 38.3704 66.2908 35.6493 66.2908C35.6405 66.2908 34.3295 66.3088 32.8501 66.853C33.0667 69.3635 34.1912 71.6696 36.0673 73.4256C36.6266 73.9456 36.6537 74.8206 36.1335 75.3798C35.6104 75.939 34.7352 75.9692 34.1791 75.446C31.5511 72.9925 30.0479 69.5379 30.0479 65.963C30.0479 65.4398 30.3427 64.9588 30.8116 64.7242C33.187 63.5367 35.55 63.5247 35.6493 63.5247C38.3943 63.5247 41.3529 64.9738 43.0366 67.2349C44.7203 64.9738 47.6789 63.5247 50.421 63.5247C50.5203 63.5247 52.8865 63.5367 55.2618 64.7242C55.7308 64.9588 56.0254 65.4398 56.0254 65.963C56.0254 69.5379 54.5192 72.9925 51.8943 75.446C51.6268 75.6955 51.2899 75.8188 50.9501 75.8188Z" fill="#91B40D"/>
<path d="M32.8532 85.8461C33.3073 91.0688 37.7 95.1787 43.0366 95.1787C48.3735 95.1787 52.7693 91.0688 53.2203 85.8461C51.744 85.3019 50.433 85.2839 50.418 85.2839C47.7031 85.2839 44.4199 87.4908 44.4199 90.2297C44.4199 90.9935 43.8005 91.6129 43.0366 91.6129C42.2731 91.6129 41.6537 90.9935 41.6537 90.2297C41.6537 87.4908 38.3704 85.2839 35.6523 85.2839C35.6405 85.2839 34.3325 85.3019 32.8532 85.8461Z" fill="#91B40D"/>
<path d="M50.9501 85.314C50.5804 85.314 50.2107 85.1665 49.9399 84.875C49.4167 84.3157 49.4468 83.4408 50.0062 82.9205C51.8823 81.1647 53.0069 78.8587 53.2203 76.3481C51.741 75.8037 50.433 75.7858 50.418 75.7858C47.7031 75.7858 44.4199 77.9927 44.4199 80.7317C44.4199 81.4954 43.8005 82.1178 43.0366 82.1178C42.2731 82.1178 41.6537 81.4954 41.6537 80.7317C41.6537 77.9927 38.3704 75.7858 35.6493 75.7858C35.6405 75.7858 34.3295 75.8037 32.8501 76.3481C33.0667 78.8587 34.1912 81.1647 36.0673 82.9205C36.6266 83.4408 36.6537 84.3157 36.1335 84.875C35.6104 85.4342 34.7352 85.4612 34.1791 84.9411C31.5511 82.4877 30.0479 79.033 30.0479 75.4581C30.0479 74.935 30.3427 74.4539 30.8116 74.2194C33.187 73.0317 35.55 73.0197 35.6493 73.0197C38.3943 73.0197 41.3529 74.4689 43.0366 76.7299C44.7203 74.4689 47.6789 73.0197 50.421 73.0197C50.5203 73.0197 52.8865 73.0317 55.2618 74.2194C55.7308 74.4539 56.0254 74.935 56.0254 75.4581C56.0254 79.033 54.5192 82.4877 51.8943 84.9411C51.6268 85.1906 51.2899 85.314 50.9501 85.314Z" fill="#91B40D"/>
<path d="M48.2802 66.6277C47.5495 66.6277 46.9392 66.0563 46.9002 65.3167C46.6566 60.7166 43.9265 58.4465 43.0364 57.9294C42.1466 58.4465 39.4166 60.7166 39.1731 65.3167C39.1339 66.0804 38.4785 66.6696 37.7179 66.6246C36.9541 66.5855 36.3709 65.933 36.4101 65.1724C36.7618 58.5517 41.4701 55.082 43.0364 55.082C44.6029 55.082 49.3116 58.5517 49.6633 65.1724C49.7025 65.933 49.1191 66.5855 48.3555 66.6246L48.2802 66.6277Z" fill="#91B40D"/>
<path d="M43.0364 57.8512C42.2729 57.8512 41.6536 57.2319 41.6536 56.4681V51.1916C41.6536 50.4278 42.2729 49.8083 43.0364 49.8083C43.8004 49.8083 44.4197 50.4278 44.4197 51.1916V56.4681C44.4197 57.2319 43.8004 57.8512 43.0364 57.8512Z" fill="#91B40D"/>
<path d="M43.0364 105.329C42.2729 105.329 41.6536 104.71 41.6536 103.946V96.5589C41.6536 95.7951 42.2729 95.1758 43.0364 95.1758C43.8004 95.1758 44.4197 95.7951 44.4197 96.5589V103.946C44.4197 104.71 43.8004 105.329 43.0364 105.329Z" fill="#91B40D"/>
<path d="M54.6423 67.3461C53.8787 67.3461 53.2593 66.7268 53.2593 65.9631V59.631C53.2593 58.8674 53.8787 58.248 54.6423 58.248C55.4059 58.248 56.0252 58.8674 56.0252 59.631V65.9631C56.0252 66.7268 55.4059 67.3461 54.6423 67.3461Z" fill="#91B40D"/>
<path d="M31.431 67.3461C30.6675 67.3461 30.0479 66.7268 30.0479 65.9631V59.631C30.0479 58.8674 30.6675 58.248 31.431 58.248C32.1949 58.248 32.8143 58.8674 32.8143 59.631V65.9631C32.8143 66.7268 32.1949 67.3461 31.431 67.3461Z" fill="#91B40D"/>
<path d="M16.6592 99.0003H10.3272C9.56354 99.0003 8.94409 98.3808 8.94409 97.6172C8.94409 96.8534 9.56354 96.2341 10.3272 96.2341H16.088L22.0112 90.308C22.5522 89.7668 23.4273 89.7668 23.9686 90.308C24.5067 90.8492 24.5067 91.7241 23.9686 92.2653L17.6364 98.5944C17.3777 98.8529 17.0261 99.0003 16.6592 99.0003Z" fill="#91B40D"/>
<path d="M75.7429 99.0003H69.4139C69.0472 99.0003 68.6953 98.856 68.4338 98.5944L62.1049 92.2653C61.5637 91.7241 61.5637 90.8492 62.1049 90.308C62.6429 89.7668 63.518 89.7668 64.0591 90.308L69.9852 96.2341H75.7429C76.5067 96.2341 77.126 96.8534 77.126 97.6172C77.126 98.3808 76.5067 99.0003 75.7429 99.0003Z" fill="#91B40D"/>
<path d="M63.0819 116.935C62.7271 116.935 62.3754 116.8 62.1049 116.529L50.9048 105.329H35.168L23.9653 116.529C23.4272 117.07 22.5521 117.07 22.0111 116.529C21.4699 115.991 21.4699 115.113 22.0111 114.575L33.6167 102.969C33.8751 102.707 34.2271 102.563 34.5938 102.563H51.4762C51.8431 102.563 52.1948 102.707 52.4534 102.969L64.0591 114.575C64.6002 115.113 64.6002 115.991 64.0591 116.529C63.7885 116.8 63.4367 116.935 63.0819 116.935Z" fill="#91B40D"/>
<path d="M25.0991 69.1292C25.0991 70.2958 24.1551 71.2397 22.9883 71.2397C21.8248 71.2397 20.8777 70.2958 20.8777 69.1292C20.8777 67.9626 21.8248 67.0184 22.9883 67.0184C24.1551 67.0184 25.0991 67.9626 25.0991 69.1292Z" fill="#91B40D"/>
<path d="M60.9744 69.1292C60.9744 70.2958 61.9186 71.2397 63.085 71.2397C64.2485 71.2397 65.1956 70.2958 65.1956 69.1292C65.1956 67.9626 64.2485 67.0184 63.085 67.0184C61.9186 67.0184 60.9744 67.9626 60.9744 69.1292Z" fill="#91B40D"/>
<path d="M25.0991 91.2851C25.0991 92.4517 24.1551 93.3958 22.9883 93.3958C21.8248 93.3958 20.8777 92.4517 20.8777 91.2851C20.8777 90.1186 21.8248 89.1744 22.9883 89.1744C24.1551 89.1744 25.0991 90.1186 25.0991 91.2851Z" fill="#91B40D"/>
<path d="M60.9744 91.2851C60.9744 92.4517 61.9186 93.3958 63.085 93.3958C64.2485 93.3958 65.1956 92.4517 65.1956 91.2851C65.1956 90.1186 64.2485 89.1744 63.085 89.1744C61.9186 89.1744 60.9744 90.1186 60.9744 91.2851Z" fill="#91B40D"/>
<path d="M25.0991 115.552C25.0991 116.718 24.1551 117.663 22.9883 117.663C21.8248 117.663 20.8777 116.718 20.8777 115.552C20.8777 114.385 21.8248 113.441 22.9883 113.441C24.1551 113.441 25.0991 114.385 25.0991 115.552Z" fill="#91B40D"/>
<path d="M65.1926 115.552C65.1926 116.718 64.2484 117.663 63.0819 117.663C61.9185 117.663 60.9714 116.718 60.9714 115.552C60.9714 114.385 61.9185 113.441 63.0819 113.441C64.2484 113.441 65.1926 114.385 65.1926 115.552Z" fill="#91B40D"/>
<path d="M16.6591 88.4468C15.8955 88.4468 15.2761 87.8275 15.2761 87.0639V75.4581C15.2761 75.0912 15.4203 74.7395 15.682 74.481L22.0111 68.149C22.5522 67.6077 23.4272 67.6077 23.9684 68.149C24.5066 68.6901 24.5066 69.565 23.9684 70.1063L18.0421 76.0294V87.0639C18.0421 87.8275 17.4227 88.4468 16.6591 88.4468Z" fill="#91B40D"/>
<path d="M69.4139 88.4468C68.6503 88.4468 68.0308 87.8275 68.0308 87.0639V76.0294L62.1049 70.1063C61.5637 69.565 61.5637 68.6901 62.1049 68.149C62.6462 67.6077 63.5208 67.6077 64.0623 68.149L70.3911 74.481C70.6526 74.7395 70.7972 75.0912 70.7972 75.4581V87.0639C70.7972 87.8275 70.1779 88.4468 69.4139 88.4468Z" fill="#91B40D"/>
<path d="M29.32 110.606C28.9655 110.606 28.6137 110.471 28.343 110.2L20.9558 102.816C20.4174 102.274 20.4174 101.399 20.9558 100.858C21.4968 100.317 22.3719 100.317 22.9131 100.858L30.2973 108.246C30.8385 108.784 30.8385 109.662 30.2973 110.2C30.0269 110.471 29.6751 110.606 29.32 110.606Z" fill="#91B40D"/>
<path d="M56.7528 110.606C56.3982 110.606 56.0463 110.471 55.7758 110.2C55.2346 109.662 55.2346 108.784 55.7758 108.246L63.16 100.858C63.7014 100.317 64.5761 100.317 65.1173 100.858C65.6557 101.399 65.6557 102.274 65.1173 102.816L57.73 110.2C57.4593 110.471 57.1076 110.606 56.7528 110.606Z" fill="#91B40D"/>
<path d="M184.434 40.1149H158.065C155.266 40.1149 152.99 37.8389 152.99 35.0396C152.99 34.2068 153.191 33.4221 153.546 32.7306H150.681C147.882 32.7306 145.603 30.4515 145.603 27.6523C145.603 26.7353 145.849 25.8754 146.276 25.1327C144.18 24.5074 142.65 22.5621 142.65 20.268C142.65 17.974 144.18 16.0286 146.276 15.4032C145.849 14.6605 145.603 13.7976 145.603 12.8806C145.603 10.0814 147.882 7.80542 150.681 7.80542H158.805C159.568 7.80542 160.188 8.42474 160.188 9.18848C160.188 9.95221 159.568 10.5716 158.805 10.5716H150.681C149.406 10.5716 148.372 11.6088 148.372 12.8806C148.372 14.1554 149.406 15.1927 150.681 15.1927H168.652C169.415 15.1927 170.035 15.8122 170.035 16.5758C170.035 17.3395 169.415 17.9589 168.652 17.9589H147.725C146.453 17.9589 145.416 18.9931 145.416 20.268C145.416 21.5398 146.453 22.5772 147.725 22.5772H168.652C169.415 22.5772 170.035 23.1965 170.035 23.9601C170.035 24.7238 169.415 25.3432 168.652 25.3432H150.681C149.406 25.3432 148.372 26.3805 148.372 27.6523C148.372 28.9272 149.406 29.9615 150.681 29.9615H171.607C172.371 29.9615 172.99 30.5808 172.99 31.3475C172.99 32.1113 172.371 32.7306 171.607 32.7306H158.065C156.794 32.7306 155.756 33.7648 155.756 35.0396C155.756 36.3114 156.794 37.3488 158.065 37.3488H184.434C187.413 37.3488 190.399 36.6452 193.063 35.3102L201.045 31.3205C201.442 31.122 201.884 31.0167 202.326 31.0167H205.228C205.994 31.0167 206.614 31.6362 206.614 32.3999C206.614 33.1665 205.994 33.786 205.228 33.786H202.326L194.301 37.7848C191.253 39.309 187.84 40.1149 184.434 40.1149Z" fill="#91B40D"/>
<path d="M187.362 20.1958C187.209 20.1958 187.052 20.1687 186.902 20.1147C181.565 18.2294 179.298 13.5391 178.736 10.5745H169.496C165.822 10.5745 162.837 7.58585 162.837 3.91476C162.837 1.98746 164.403 0.421082 166.33 0.421082H185.982C187.626 0.421082 189.235 0.881073 190.63 1.75296L200.314 7.80835H209.449C210.212 7.80835 210.832 8.42773 210.832 9.19147C210.832 9.9552 210.212 10.5745 209.449 10.5745H200.269C199.779 10.5745 199.301 10.4362 198.884 10.1746L189.163 4.10117C188.207 3.50284 187.109 3.18723 185.982 3.18723H166.33C165.931 3.18723 165.603 3.51483 165.603 3.91476C165.603 6.06158 167.35 7.80835 169.496 7.80835H179.975C180.738 7.80835 181.361 8.42773 181.361 9.19147C181.361 11.0796 182.987 15.7971 187.822 17.5079C188.543 17.7634 188.919 18.5542 188.667 19.2728C188.465 19.841 187.93 20.1958 187.362 20.1958Z" fill="#91B40D"/>
<path d="M176.742 68.6028C168.3 68.6028 161.351 62.0934 160.648 53.8312H144.033C143.27 53.8312 142.65 53.2119 142.65 52.4481C142.65 51.6845 143.27 51.0651 144.033 51.0651H161.971C162.734 51.0651 163.354 51.6845 163.354 52.4481C163.354 59.8295 169.361 65.8368 176.742 65.8368C184.124 65.8368 190.131 59.8295 190.131 52.4481C190.131 51.6845 190.75 51.0651 191.514 51.0651H209.449C210.216 51.0651 210.835 51.6845 210.835 52.4481C210.835 53.2119 210.216 53.8312 209.449 53.8312H192.837C192.134 62.0934 185.185 68.6028 176.742 68.6028Z" fill="#91B40D"/>
<path d="M172.522 47.1715C172.522 48.3381 171.577 49.2822 170.411 49.2822C169.247 49.2822 168.3 48.3381 168.3 47.1715C168.3 46.0049 169.247 45.0609 170.411 45.0609C171.577 45.0609 172.522 46.0049 172.522 47.1715Z" fill="#91B40D"/>
<path d="M178.853 56.6694C178.853 57.8361 177.909 58.7802 176.742 58.7802C175.579 58.7802 174.632 57.8361 174.632 56.6694C174.632 55.5028 175.579 54.5588 176.742 54.5588C177.909 54.5588 178.853 55.5028 178.853 56.6694Z" fill="#91B40D"/>
<path d="M185.182 49.2822C185.182 50.4487 184.238 51.3928 183.072 51.3928C181.908 51.3928 180.961 50.4487 180.961 49.2822C180.961 48.1156 181.908 47.1715 183.072 47.1715C184.238 47.1715 185.182 48.1156 185.182 49.2822Z" fill="#91B40D"/>
<path d="M325.042 109.803H325.099L328.981 109.992C330.268 109.992 331.528 109.475 332.475 108.54L333.359 107.668C336.534 104.532 338.283 100.362 338.283 95.9274V94.2467C338.283 94.2136 338.287 94.1535 338.289 94.1204C338.329 93.6844 338.428 91.4144 336.591 89.409C334.513 87.136 330.59 85.9363 325.241 85.9363C319.895 85.9363 316.106 87.0879 313.978 89.3639C312.159 91.3092 312.153 93.507 312.195 94.1354L312.201 94.2406V95.9274C312.201 100.362 313.951 104.532 317.126 107.668L318.01 108.54C318.951 109.469 320.199 109.984 321.528 109.992L324.979 109.806L325.042 109.803Z" fill="#91B40D"/>
<path d="M325.43 92.0218C324.336 92.0218 323.542 91.8113 322.598 91.2732C322.045 90.9545 321.853 90.248 322.168 89.6917C322.487 89.1355 323.193 88.9431 323.75 89.2617C324.264 89.5563 324.664 89.7068 325.43 89.7068C326.056 89.7068 326.576 89.5684 327.111 89.2617C327.664 88.9431 328.374 89.1355 328.692 89.6917C329.008 90.248 328.816 90.9545 328.263 91.2732C327.379 91.7753 326.453 92.0218 325.43 92.0218Z" fill="#91B40D"/>
<path d="M304.582 112.308L300.701 112.121L297.276 112.305L297.213 112.308C295.259 112.308 293.422 111.556 292.039 110.188L291.155 109.316C287.535 105.741 285.541 100.985 285.541 95.9274V94.2798C285.481 93.3748 285.505 90.3892 287.94 87.7824C290.523 85.0192 294.883 83.6182 300.899 83.6182C305.406 83.6182 309.011 84.4059 311.612 85.9573C312.162 86.2851 312.342 86.9947 312.015 87.5449C311.687 88.0951 310.974 88.2755 310.427 87.9477C308.19 86.6128 304.982 85.9363 300.899 85.9363C295.551 85.9363 291.759 87.091 289.633 89.3639C287.811 91.3122 287.808 93.507 287.85 94.1354L287.856 94.2377V95.9274C287.856 100.362 289.606 104.532 292.781 107.668L293.665 108.54C294.591 109.457 295.872 109.984 297.186 109.992L300.635 109.806C300.674 109.803 300.716 109.803 300.755 109.803L304.639 109.992C305.923 109.992 307.183 109.475 308.13 108.54L309.014 107.668C310.229 106.469 311.245 105.098 312.039 103.594C312.336 103.029 313.04 102.813 313.605 103.11C314.171 103.408 314.387 104.108 314.089 104.674C313.184 106.388 312.024 107.951 310.641 109.316L309.757 110.188C308.374 111.556 306.537 112.308 304.582 112.308Z" fill="#91B40D"/>
<path d="M301.086 92.0218C299.991 92.0218 299.197 91.8113 298.253 91.2732C297.7 90.9545 297.508 90.248 297.824 89.6917C298.142 89.1355 298.849 88.9431 299.405 89.2617C299.919 89.5563 300.322 89.7068 301.086 89.7068C301.711 89.7068 302.231 89.5684 302.766 89.2617C303.323 88.9431 304.029 89.1355 304.348 89.6917C304.663 90.248 304.471 90.9545 303.918 91.2732C303.034 91.7753 302.108 92.0218 301.086 92.0218Z" fill="#91B40D"/>
<path d="M301.11 91.5166C301.065 91.5166 301.019 91.5137 300.974 91.5076C300.34 91.4354 299.886 90.8612 299.958 90.2269C300.072 89.2075 302.986 65.0972 317.932 47.5142C318.347 47.0273 319.077 46.9671 319.565 47.3821C320.052 47.797 320.112 48.5276 319.697 49.0147C305.217 66.0473 302.285 90.2479 302.258 90.4913C302.189 91.0808 301.69 91.5166 301.11 91.5166Z" fill="#91B40D"/>
<path d="M325.454 91.2971C325.088 91.2971 324.727 91.1257 324.501 90.8009C324.153 90.2958 315.944 78.1069 315.944 50.4818C315.944 49.8444 316.462 49.3213 317.102 49.3213C317.742 49.3213 318.26 49.8444 318.26 50.4818C318.26 77.3914 326.323 89.3668 326.408 89.4841C326.768 90.0103 326.639 90.732 326.113 91.0927C325.911 91.234 325.683 91.2971 325.454 91.2971Z" fill="#91B40D"/>
<path d="M319.168 62.6347C320.448 66.6695 325.545 77.9234 342.587 78.5249C341.516 74.55 336.916 63.245 319.168 62.6347Z" fill="#91B40D"/>
<path d="M107.86 55.8216C108.603 57.6137 107.752 59.6672 105.96 60.4097C104.168 61.1524 102.114 60.3015 101.372 58.5096C100.629 56.7176 101.48 54.6641 103.272 53.9214C105.064 53.1788 107.117 54.0297 107.86 55.8216Z" fill="#91B40D"/>
<path d="M348.479 160.865C346.688 161.608 344.634 160.757 343.891 158.965C343.149 157.173 344 155.119 345.792 154.377C347.584 153.634 349.637 154.485 350.38 156.277C351.122 158.069 350.271 160.122 348.479 160.865Z" fill="#91B40D"/>
<path d="M249.924 58.5096C249.182 60.3015 247.128 61.1524 245.336 60.4097C243.544 59.6672 242.694 57.6137 243.436 55.8216C244.179 54.0297 246.233 53.1788 248.024 53.9214C249.816 54.6641 250.667 56.7176 249.924 58.5096Z" fill="#91B40D"/>
<path d="M2.81674 160.865C1.02469 160.122 0.1738 158.069 0.916414 156.277C1.65927 154.485 3.71274 153.634 5.50479 154.377C7.29672 155.119 8.14743 157.173 7.40482 158.965C6.66226 160.757 4.60849 161.608 2.81674 160.865Z" fill="#91B40D"/>
</g>
</svg>
