<svg width="115" height="45" viewBox="0 0 115 45" fill="none" xmlns="http://www.w3.org/2000/svg">
<path d="M52.9084 21.5576L38.6607 7.31004C38.1369 6.78632 38.1369 5.93723 38.6607 5.41352L43.6812 0.39283C44.2049 -0.130943 45.054 -0.130943 45.5777 0.39283L59.8252 14.6404C60.349 15.1641 60.349 16.0132 59.8252 16.537L54.8048 21.5576C54.2812 22.0814 53.432 22.0814 52.9084 21.5576Z" fill="#91B40D"/>
<path d="M36.7709 21.5124L30.4861 15.2275C29.9623 14.7037 29.9623 13.8546 30.4861 13.3309L35.5068 8.31021C36.0306 7.78665 36.8796 7.78665 37.4035 8.31021L43.6879 14.5952C44.2116 15.1189 44.2116 15.9679 43.6879 16.4917L38.6673 21.5124C38.1435 22.0363 37.2945 22.0363 36.7709 21.5124Z" fill="#FFBF00"/>
<path d="M84.5184 21.1264C84.5184 21.867 83.9179 22.4675 83.1772 22.4675H78.9058C73.1052 22.4675 67.6514 20.2086 63.5494 16.1067L54.7526 7.30999C54.2289 6.78627 54.2289 5.93724 54.7526 5.41347L59.7731 0.392963C60.2969 -0.130962 61.1461 -0.130962 61.6697 0.392811L70.4665 9.18935C72.7209 11.4439 75.7178 12.6852 78.9058 12.6852H83.1772C83.9179 12.6852 84.5184 13.2858 84.5184 14.0265V21.1264Z" fill="#1A5221"/>
<path d="M13.2771 35.5529V44.2364H11.0214V38.1879L7.36841 43.0586L3.71533 38.1879V44.2364H1.45959V35.5529L0.441406 33.896H2.95679L7.36841 39.7449L11.78 33.896H14.2952L13.2771 35.5529Z" fill="#E6E6E6"/>
<path d="M20.0249 42.1603H26.5126V44.2365H17.9888V33.8961H26.1334V35.9522H20.0249V38.4673C20.9232 37.9482 22.0609 37.8685 23.2587 37.8685H24.7759V39.9247H23.2587C21.3623 39.9247 20.9232 40.0444 20.0249 40.5234V42.1603Z" fill="#E6E6E6"/>
<path d="M30.4058 44.2363V33.8959H32.5416V42.1602H38.0312V44.2363H30.4058Z" fill="#E6E6E6"/>
<path d="M43.7012 33.6564H45.9169L51.5063 44.2363H49.2506L48.4321 42.6791H47.1945C44.6393 42.6791 41.9844 43.6774 41.6449 44.1165L41.5851 44.2363H39.4292L44.3798 34.9539L43.7012 33.6564ZM47.4539 40.8028L45.4379 36.9701L42.9824 41.7011C43.6412 41.3617 45.0386 40.8028 47.1744 40.8028H47.4539Z" fill="#E6E6E6"/>
<path d="M58.813 33.8959H65.2208C68.335 33.8959 70.451 35.6926 70.451 38.9863C70.451 42.2001 68.3748 44.2363 65.2208 44.2363H61.0085V35.9521H59.7311L58.813 33.8959ZM63.1648 35.9521V42.1602H65.2208C67.2169 42.1602 68.3547 41.0223 68.3547 39.0262C68.3547 37.01 67.2169 35.9521 65.2208 35.9521H63.1648Z" fill="#E6E6E6"/>
<path d="M79.355 35.6724C77.3589 35.6724 75.4025 36.7305 75.4025 39.0662C75.4025 41.4016 77.3989 42.4597 79.3751 42.4597C81.3313 42.4597 83.3076 41.222 83.3076 38.9863C83.3076 36.6706 81.3114 35.6724 79.355 35.6724Z" fill="#E6E6E6"/>
<path d="M97.4414 41.1024C97.9407 41.9407 98.6591 42.0206 99.1781 42.0206H99.8969V44.2365H98.9985C97.9207 44.2365 96.9424 44.1566 95.9841 42.5995L94.3872 40.0044H94.2474C92.6306 40.0044 92.1914 40.1642 91.353 40.6033V44.2365H89.2571V33.8961H95.9243C97.8207 33.8961 99.1781 35.2135 99.1781 37.0101C99.1781 38.5871 98.2998 39.5653 96.8025 40.0244L97.4414 41.1024ZM95.9243 37.9482C96.5431 37.9482 97.0822 37.6091 97.0822 36.9502C97.0822 36.0319 96.2838 35.9522 95.5651 35.9522H91.353V38.5473C92.1515 38.108 93.1694 37.9482 94.2474 37.9482H95.9243Z" fill="#E6E6E6"/>
<path d="M106.365 33.6564H108.581L114.171 44.2363H111.915L111.096 42.6791H109.859C107.303 42.6791 104.649 43.6774 104.309 44.1165L104.249 44.2363H102.093L107.044 34.9539L106.365 33.6564ZM110.118 40.8028L108.102 36.9701L105.647 41.7011C106.305 41.3617 107.703 40.8028 109.839 40.8028H110.118Z" fill="#E6E6E6"/>
</svg>
